<?xml version="1.0" ?><!DOCTYPE svg  PUBLIC '-//W3C//DTD SVG 1.1//EN'  'http://www.w3.org/Graphics/SVG/1.1/DTD/svg11.dtd'><svg enable-background="new 0 0 130 130" height="130px" id="Layer_1" version="1.1" viewBox="0 0 130 130" width="130px" xml:space="preserve" xmlns="http://www.w3.org/2000/svg" xmlns:xlink="http://www.w3.org/1999/xlink"><g><g><g><circle cx="65" cy="65" fill="#B29044" r="48"/><circle cx="65" cy="65" fill="#A08338" r="34.968"/></g><g><polygon fill="#6BDDA6" points="83.875,52.846 73.742,54.42 69.388,42.639 75.351,32.744 84,28.291 72.96,28.887 60.613,41.111      62.265,28.564 71.615,21.613 57.023,24.943 53.455,38.68 48.388,29.398 52.375,22.582 43.347,29.248 47.064,41.633      39.628,37.627 40.398,33.24 35.144,40.006 43.964,50.041 53.541,73.979 52.904,100.428 52.652,101.68 71.664,101.68      67.455,71.336 75.994,63.307 88.14,57.383 88.49,46.068    "/><g><polygon fill="#51BFAA" points="76.109,54.051 67.597,55.938 85.14,54.623 88.371,49.916 88.49,46.068 83.875,52.846     "/><polygon fill="#51BFAA" points="63.492,38.26 63.115,41.111 75.462,28.887 83.707,28.443 84,28.291 72.96,28.887     "/><polygon fill="#51BFAA" points="59.91,73.758 46.466,50.041 36.164,39.744 38.183,37.139 40.398,33.24 35.144,40.006       43.964,50.041 53.541,73.979 52.904,100.428 52.652,101.68 53.06,101.68 54.089,98.896     "/><polygon fill="#51BFAA" points="69.609,86.869 66.363,90.781 65.613,87.404 62.048,90.592 59.986,86.09 59.482,87.598       55.189,89.877 53.306,83.758 52.904,100.428 52.81,100.9 71.556,100.9     "/><polygon fill="#51BFAA" points="49.568,41.633 45.849,29.248 49.873,25.078 52.375,22.582 43.347,29.248 46.585,40.025     "/><polygon fill="#51BFAA" points="54.279,43.09 59.525,24.943 70.505,22.436 71.615,21.613 57.023,24.943 54.259,35.572     "/></g><polygon fill="#51BFAA" points="64.878,48.152 51.839,49.559 63.941,49.277    "/><polygon fill="#51BFAA" points="65.925,47.174 55.298,54.854 65.667,48.615    "/><polygon fill="none" points="     83.875,52.846 73.742,54.42 69.388,42.639 75.351,32.744 84,28.291 72.96,28.887 60.613,41.111 62.265,28.564 71.615,21.613      57.023,24.943 53.455,38.68 48.388,29.398 52.375,22.582 43.347,29.248 47.064,41.633 39.628,37.627 40.398,33.24 35.144,40.006      43.964,50.041 53.541,73.979 52.904,100.428 52.652,101.68 71.664,101.68 67.455,71.336 75.994,63.307 88.14,57.383      88.49,46.068    " stroke="#343D47" stroke-linecap="round" stroke-linejoin="round" stroke-miterlimit="10" stroke-width="2"/><line fill="none" stroke="#343D47" stroke-linecap="round" stroke-linejoin="round" stroke-miterlimit="10" stroke-width="2" x1="63.482" x2="75.994" y1="74.748" y2="63.307"/><line fill="none" stroke="#343D47" stroke-linecap="round" stroke-linejoin="round" stroke-miterlimit="10" stroke-width="2" x1="83.875" x2="71.082" y1="52.846" y2="54.854"/><line fill="none" stroke="#343D47" stroke-linecap="round" stroke-linejoin="round" stroke-miterlimit="10" stroke-width="2" x1="55.298" x2="48.388" y1="42.021" y2="29.398"/><line fill="none" stroke="#343D47" stroke-linecap="round" stroke-linejoin="round" stroke-miterlimit="10" stroke-width="2" x1="50.427" x2="39.628" y1="43.453" y2="37.627"/><path d="M85.685,96.178l-5.627,2.439l9.191-14.635l-15.57,12.57l0.938-7.129l-8.254,9.941l-0.75-3.375     l-3.564,3.188l-2.062-4.502l-0.504,1.506l-4.293,2.281l-2.359-7.664l-1.475,1.621l-4.422-6.932l0.734,6.932L34.109,82.393     l11.203,17.986l-10.469-3.684l10.643,9.176c0.404,1.447,1.719,2.516,3.297,2.516h32.646c1.672,0,3.062-1.193,3.371-2.775h0.002     l3.883-5.869l-5.062,1.125L85.685,96.178z" fill="#CCA75E"/><path d="M81.234,96.742l-7.555,6.102l0.926-7.037l-0.193,0.154l-8.049,9.695l-0.75-3.377l-3.564,3.188     l-2.062-4.502l-0.504,1.508l-4.293,2.279L52.83,97.09l-1.475,1.619l-4.307-6.748l-0.104-0.076l0.723,6.824l-6.295-4.654     l3.939,6.324l-5.018-1.766l3.742,6.008l1.449,1.25c0.404,1.447,1.719,2.516,3.297,2.516h32.646c1.109,0,2.086-0.531,2.713-1.346     l-0.52,0.115l2.062-4.689l-5.627,2.439l5.428-8.643l-5.428,2.354L81.234,96.742z" fill="#B29044"/><polyline fill="none" points="     84.8,105.611 84.802,105.611 88.685,99.742 83.623,100.867 85.685,96.178 80.058,98.617 89.25,83.982 73.679,96.553      74.617,89.424 66.363,99.365 65.613,95.99 62.048,99.178 59.986,94.676 59.482,96.182 55.189,98.463 52.83,90.799 51.355,92.42      46.933,85.488 47.667,92.42 34.109,82.393 45.312,100.379 34.843,96.695 45.486,105.871    " stroke="#343D47" stroke-linecap="round" stroke-linejoin="round" stroke-miterlimit="10" stroke-width="2"/></g></g><circle cx="38.065" cy="67.59" fill="#B29044" r="1.837"/><path d="M40.023,57.676c0,0.539-0.439,0.979-0.979,0.979c-0.541,0-0.979-0.439-0.979-0.979   c0,0.523,0.439-0.979,0.979-0.979S40.023,57.135,40.023,57.676z" fill="#B29044"/><circle cx="84.565" cy="72.816" fill="#B29044" r="3.142"/><circle cx="79.201" cy="78.812" fill="#B29044" r="1.723"/><circle cx="96.508" cy="68.014" fill="#B29044" r="1.665"/><circle cx="81.905" cy="41.523" fill="#B29044" r="1.54"/><circle cx="75.684" cy="46.898" fill="#B29044" r="2.448"/></g></svg>